<svg width="509" height="240" viewBox="0 0 509 240" fill="none" xmlns="http://www.w3.org/2000/svg">
<path d="M9.02912 211.735H38.7535L0.0118408 196.651V202.697C0.0118408 208.725 3.0176 211.738 9.02912 211.735Z" fill="#D8612B"/>
<path d="M481.924 232.442C484.729 232.442 486.933 231.59 488.535 229.887C490.136 228.183 490.942 226.033 490.953 223.437V204.205H498.854L444.738 134.328C444.276 135.524 444.046 136.796 444.061 138.077V157.313H409.499L430.573 116.036L397.991 73.9686L360.503 147.997C357.093 154.608 355.389 160.718 355.392 166.326V189.109L394.133 204.193H444.049V223.425C444.049 223.497 444.049 223.562 444.049 223.631L466.679 232.442H481.924Z" fill="#D8612B"/>
<path d="M364.421 211.735H394.145L355.404 196.651V202.697C355.404 208.725 358.409 211.738 364.421 211.735Z" fill="#D8612B"/>
<path d="M453.081 240H466.705L444.075 231.188C444.116 233.704 444.906 235.792 446.47 237.444C448.034 239.097 450.259 240 453.081 240Z" fill="#D8612B"/>
<path d="M430.576 97.5696L475.017 10.5208C476.017 8.50536 476.517 6.89298 476.517 5.7119C476.517 1.90667 473.512 0.00268731 467.504 0H434.139C431.334 0 429.08 0.451463 427.379 1.3544C425.678 2.25734 424.576 3.10923 424.074 3.91005C423.137 5.57086 422.286 7.27816 421.522 9.02535L397.993 55.5065L430.576 97.5696Z" fill="#D8612B"/>
<path d="M499.657 138.843H490.942V119.611C490.942 117.007 490.136 114.857 488.524 113.162C486.911 111.466 484.708 110.614 481.913 110.606H453.083C450.278 110.606 448.074 111.458 446.473 113.162C445.729 113.947 445.144 114.868 444.747 115.875L498.851 185.735H499.657C505.669 185.735 508.675 182.731 508.675 176.722V147.86C508.675 141.851 505.669 138.846 499.657 138.843Z" fill="#D8612B"/>
<path d="M126.532 232.442C129.338 232.442 131.541 231.59 133.143 229.887C134.745 228.183 135.551 226.033 135.562 223.437V204.205H143.462L89.3465 134.328C88.8845 135.524 88.6546 136.796 88.6693 138.077V157.313H54.1077L75.1817 116.036L42.5993 73.9686L5.11125 147.997C1.70105 154.608 -0.00268414 160.718 3.17404e-06 166.326V189.109L38.7417 204.193H88.6572V223.425C88.6572 223.497 88.6572 223.562 88.6572 223.631L111.287 232.442H126.532Z" fill="#D8612B"/>
<path d="M97.6889 240H111.314L88.6837 231.188C88.724 233.704 89.5141 235.792 91.0781 237.444C92.6421 239.097 94.8672 240 97.6889 240Z" fill="#D8612B"/>
<path d="M75.1841 97.5696L119.626 10.5208C120.625 8.50536 121.125 6.89298 121.125 5.7119C121.125 1.90667 118.121 0.00268731 112.112 0H78.7474C75.9419 0 73.6885 0.451463 71.9875 1.3544C70.2864 2.25734 69.1846 3.10923 68.6821 3.91005C67.7455 5.57086 66.8939 7.27816 66.1305 9.02535L42.6017 55.5065L75.1841 97.5696Z" fill="#D8612B"/>
<path d="M144.266 138.843H135.551V119.611C135.551 117.007 134.744 114.857 133.132 113.162C131.52 111.466 129.316 110.614 126.521 110.606H97.6918C94.8862 110.606 92.6826 111.458 91.081 113.162C90.3379 113.947 89.7522 114.868 89.3557 115.875L143.459 185.735H144.266C150.277 185.735 153.283 182.731 153.283 176.722V147.86C153.283 141.851 150.277 138.846 144.266 138.843Z" fill="#D8612B"/>
<path d="M312.472 39.9875C309.961 36.2204 307.053 32.7338 303.798 29.5876C290.971 17.1722 274.436 10.9645 254.193 10.9645C233.949 10.9645 217.422 17.1749 204.612 29.5956C191.791 42.0191 185.38 58.0476 185.38 77.6811V121.445L234.663 141.374V77.6851C234.663 70.8755 236.416 65.4659 239.923 61.4564C243.43 57.447 248.187 55.4369 254.193 55.4261C260.003 55.4261 264.705 57.4295 268.301 61.4363C271.897 65.4431 273.7 70.8526 273.711 77.665V128.669L312.472 39.9875Z" fill="#D8612B"/>
<path d="M337.116 157.776V73.6338C337.116 59.0927 333.597 46.5309 326.559 35.9483L287.829 124.63V152.754L336.14 170.49C336.803 166.285 337.129 162.033 337.116 157.776Z" fill="#D8612B"/>
<path d="M235.879 184.086C232.095 183.42 228.644 181.498 226.084 178.632C222.577 174.725 220.831 169.367 220.844 162.557V141.822L171.557 121.888V162.255C171.557 181.893 177.968 197.922 190.789 210.34C198.311 217.669 207.53 223.021 217.623 225.92L235.879 184.086Z" fill="#D8612B"/>
<path d="M273.744 156.777V162.126C273.744 168.938 271.997 174.298 268.504 178.205C265.01 182.113 260.24 184.06 254.194 184.046C252.69 184.054 251.189 183.919 249.711 183.643L231.443 225.477C238.43 227.511 246.013 228.528 254.194 228.528C274.429 228.528 290.956 222.318 303.775 209.897C313.718 200.271 319.803 188.475 322.031 174.509L273.744 156.777Z" fill="#D8612B"/>
</svg>
