<svg width="20" height="20" viewBox="0 0 20 20" fill="none" xmlns="http://www.w3.org/2000/svg">
<path opacity="0.4" d="M18.3335 9.9999C18.3335 14.5957 14.5951 18.3332 10.0001 18.3332C5.40514 18.3332 1.66681 14.5957 1.66681 9.9999C1.66681 5.4049 5.40514 1.66656 10.0001 1.66656C14.5951 1.66656 18.3335 5.4049 18.3335 9.9999" fill="white"/>
<path d="M13.5174 8.79791C13.5174 8.95708 13.4565 9.11708 13.3349 9.23875L10.4432 12.1446C10.3257 12.2621 10.1665 12.3279 9.99988 12.3279C9.83404 12.3279 9.67488 12.2621 9.55738 12.1446L6.66404 9.23875C6.42071 8.99458 6.42071 8.59958 6.66571 8.35541C6.91071 8.11208 7.30654 8.11291 7.54988 8.35708L9.99988 10.8179L12.4499 8.35708C12.6932 8.11291 13.0882 8.11208 13.3332 8.35541C13.4565 8.47708 13.5174 8.63791 13.5174 8.79791" fill="white"/>
</svg>
