<svg width="7" height="7" viewBox="0 0 7 7" fill="none" xmlns="http://www.w3.org/2000/svg">
<path d="M3.50003 6.68747C3.64369 6.68747 3.78147 6.6315 3.88305 6.53187C3.98463 6.43224 4.0417 6.29712 4.0417 6.15622V2.12616L5.2832 3.34485C5.38491 3.4446 5.52286 3.50064 5.6667 3.50064C5.81054 3.50064 5.94849 3.4446 6.0502 3.34485C6.15191 3.24509 6.20905 3.1098 6.20905 2.96872C6.20905 2.82765 6.15191 2.69235 6.0502 2.5926L3.88353 0.467598C3.83322 0.418124 3.77344 0.378872 3.70764 0.352091C3.64183 0.325309 3.57128 0.311523 3.50003 0.311523C3.42879 0.311523 3.35824 0.325309 3.29243 0.352091C3.22662 0.378872 3.16685 0.418124 3.11653 0.467598L0.949867 2.5926C0.848156 2.69235 0.791016 2.82765 0.791016 2.96872C0.791016 3.1098 0.848156 3.24509 0.949867 3.34485C1.05158 3.4446 1.18953 3.50064 1.33337 3.50064C1.47721 3.50064 1.61516 3.4446 1.71687 3.34485L2.95837 2.12616V6.15622C2.95837 6.29712 3.01544 6.43224 3.11702 6.53187C3.2186 6.6315 3.35637 6.68747 3.50003 6.68747Z" fill="#B6B6B6"/>
</svg>
