<svg width="103" height="70" viewBox="0 0 103 70" fill="none" xmlns="http://www.w3.org/2000/svg">
<g clip-path="url(#clip0_7_173)">
<path d="M79.5672 0.000244265C85.6822 0.000244265 91.4307 2.39922 95.7528 6.75642C100.077 11.1139 102.458 16.9063 102.458 23.0673C102.458 26.2351 101.936 29.2322 100.908 31.9736C99.8455 34.8046 98.2705 37.2931 96.2237 39.3723C91.8701 43.7964 85.5949 46.1343 78.076 46.1343C78.0182 46.1343 77.9745 46.1372 77.9435 46.1414C77.715 46.7668 77.9533 49.4471 80.7048 53.9152C83.5886 58.598 87.947 63.1003 92.66 66.2652C93.4015 66.7626 93.7319 67.692 93.4734 68.5503C93.2158 69.4102 92.4298 69.9971 91.5389 69.9971C87.6449 69.9971 78.98 67.3452 71.0697 60.0375C64.5032 53.9733 56.6778 42.8968 56.6778 24.5678C56.6778 17.6395 59.0499 11.3436 63.3554 6.83876C67.5709 2.43033 73.3291 0 79.5667 0L79.5672 0.000244265Z" fill="black" fill-opacity="0.1"/>
<path d="M23.8089 0.000244265C29.9241 0.000244265 35.6721 2.39922 39.9948 6.75642C44.3189 11.1139 46.6992 16.9063 46.6992 23.0673C46.6992 26.2351 46.1774 29.2322 45.1493 31.9736C44.0873 34.8046 42.512 37.2931 40.4656 39.3723C36.1119 43.7964 29.8363 46.1343 22.3178 46.1343C22.26 46.1343 22.2162 46.1372 22.1852 46.1414C21.9568 46.7668 22.1951 49.4471 24.9465 53.9152C27.8306 58.598 32.1885 63.1003 36.9015 66.2652C37.6433 66.7626 37.9733 67.692 37.7153 68.5503C37.4571 69.4102 36.6716 69.9971 35.7803 69.9971C31.8865 69.9971 23.2217 67.3452 15.3114 60.0375C8.74493 53.9733 0.919495 42.8968 0.919495 24.5678C0.919495 17.6395 3.2916 11.3436 7.5972 6.83876C11.8126 2.43033 17.5708 0 23.8084 0L23.8089 0.000244265Z" fill="black" fill-opacity="0.1"/>
</g>
<defs>
<clipPath id="clip0_7_173">
<rect width="101.773" height="70" fill="white" transform="translate(0.917664)"/>
</clipPath>
</defs>
</svg>
