<svg width="22" height="22" viewBox="0 0 22 22" fill="none" xmlns="http://www.w3.org/2000/svg">
<path d="M21.7432 9.38528L11.4967 0.404485C11.2123 0.155373 10.7876 0.155373 10.5033 0.404485L0.256799 9.38528C-0.0560824 9.65953 -0.0874248 10.1356 0.186821 10.4486C0.461067 10.7614 0.93717 10.7928 1.25005 10.5185L2.04343 9.82317V21.0289C2.04343 21.445 2.38073 21.7823 2.79686 21.7823H8.50677H13.4932H19.2031C19.6192 21.7823 19.9565 21.445 19.9565 21.0289V9.82323L20.7499 10.5186C20.8929 10.6439 21.07 10.7055 21.2462 10.7055C21.4557 10.7055 21.6641 10.6186 21.8131 10.4486C22.0875 10.1356 22.0561 9.65959 21.7432 9.38528ZM9.2602 20.2755V14.069H12.7397V20.2756L9.2602 20.2755ZM18.4498 8.5083V20.2755H14.2468V13.3156C14.2468 12.8995 13.9094 12.5621 13.4933 12.5621H8.5069C8.09083 12.5621 7.75347 12.8995 7.75347 13.3156V20.2756H3.55034V8.5083C3.55034 8.50637 3.5501 8.50456 3.5501 8.50269L11 1.97293L18.45 8.50263C18.4501 8.50462 18.4498 8.50637 18.4498 8.5083Z" fill="#D8612B"/>
<path d="M9.31226 7.27735C9.31226 7.69348 9.64955 8.03077 10.0657 8.03077H11.9342C12.3502 8.03077 12.6876 7.69348 12.6876 7.27735C12.6876 6.86122 12.3502 6.52393 11.9342 6.52393H10.0657C9.64961 6.52393 9.31226 6.86122 9.31226 7.27735Z" fill="#D8612B"/>
</svg>
