<svg width="20" height="20" viewBox="0 0 20 20" fill="none" xmlns="http://www.w3.org/2000/svg">
<path d="M13.3334 10.75V14.25C13.3334 17.1667 12.1667 18.3333 9.25002 18.3333H5.75002C2.83335 18.3333 1.66669 17.1667 1.66669 14.25V10.75C1.66669 7.83332 2.83335 6.66666 5.75002 6.66666H9.25002C12.1667 6.66666 13.3334 7.83332 13.3334 10.75Z" stroke="#505050" stroke-width="1.5" stroke-linecap="round" stroke-linejoin="round"/>
<path d="M18.3334 5.74999V9.24999C18.3334 12.1667 17.1667 13.3333 14.25 13.3333H13.3334V10.75C13.3334 7.83332 12.1667 6.66666 9.25002 6.66666H6.66669V5.74999C6.66669 2.83332 7.83335 1.66666 10.75 1.66666H14.25C17.1667 1.66666 18.3334 2.83332 18.3334 5.74999Z" stroke="#505050" stroke-width="1.5" stroke-linecap="round" stroke-linejoin="round"/>
</svg>
