<svg width="20" height="20" viewBox="0 0 20 20" fill="none" xmlns="http://www.w3.org/2000/svg">
<path d="M6.81666 13.35C6.18333 13.2916 5.55833 13 5.075 12.4916C3.975 11.3333 3.975 9.4333 5.075 8.27497L6.9 6.35831C8 5.19998 9.80834 5.19998 10.9167 6.35831C12.0167 7.51665 12.0167 9.41664 10.9167 10.575L10.0083 11.5333" stroke="#505050" stroke-width="1.5" stroke-linecap="round" stroke-linejoin="round"/>
<path d="M13.1833 6.64999C13.8166 6.70833 14.4416 6.99999 14.925 7.50833C16.025 8.66666 16.025 10.5667 14.925 11.725L13.1 13.6416C12 14.8 10.1916 14.8 9.0833 13.6416C7.9833 12.4833 7.9833 10.5833 9.0833 9.42498L9.99164 8.46665" stroke="#505050" stroke-width="1.5" stroke-linecap="round" stroke-linejoin="round"/>
<path d="M7.50002 18.3333H12.5C16.6667 18.3333 18.3334 16.6667 18.3334 12.5V7.49999C18.3334 3.33332 16.6667 1.66666 12.5 1.66666H7.50002C3.33335 1.66666 1.66669 3.33332 1.66669 7.49999V12.5C1.66669 16.6667 3.33335 18.3333 7.50002 18.3333Z" stroke="#505050" stroke-width="1.5" stroke-linecap="round" stroke-linejoin="round"/>
</svg>
