<svg width="868" height="187" viewBox="0 0 868 187" fill="none" xmlns="http://www.w3.org/2000/svg">
<g clip-path="url(#clip0_153_255)">
<path d="M139.544 0V31.0236H34.713V83.8798H130.191V114.348H34.713V187H-0.0507812V0H139.544Z" fill="#D8612B"/>
<path d="M323.323 0V31.0236H212.105V77.4832H315.065V107.126H212.004V155.943H325.395V186.933H177.24V0H323.323Z" fill="#D8612B"/>
<path d="M498.742 0H532.714V187H496.08L397.13 52.6374V187H362.889V0H399.523L498.742 134.379V0Z" fill="#D8612B"/>
<path d="M868 0H826.023L776.144 65.6495L726.535 0H683.834L727.933 57.9567C754.895 93.4411 776.144 93.4411 776.144 93.4411C776.144 93.4411 754.912 93.4411 728.001 128.791L683.834 187H726.569L776.178 121.35L826.057 187H868.033L797.259 93.5084L868 0Z" fill="#D8612B"/>
<path d="M613.33 187L657.513 128.892C684.475 93.5421 705.674 93.5421 705.674 93.5421C705.674 93.5421 684.442 93.5421 657.446 58.0577L613.33 0.0336914H570.359L641.134 93.5421L570.359 187.034L613.33 187Z" fill="#D8612B"/>
</g>
<defs>
<clipPath id="clip0_153_255">
<rect width="868" height="187" fill="white"/>
</clipPath>
</defs>
</svg>
