<svg width="50" height="50" viewBox="0 0 50 50" fill="none" xmlns="http://www.w3.org/2000/svg">
<path d="M37.6563 3.23755L46.3501 12.3V46.7625H13.8735V46.875H46.461V12.4141L37.6563 3.23755Z" fill="#909090"/>
<path d="M37.5484 3.125H13.7625V46.7625H46.35V12.3016L37.5468 3.125" fill="#F4F4F4"/>
<path d="M13.5234 5.46875H3.53906V16.1359H34.9453V5.46875H13.5234Z" fill="#7A7B7C"/>
<path d="M35.1125 15.9547H3.74219V5.27966H35.1125V15.9547Z" fill="#D8612B"/>
<path d="M14.1438 7.08433H12.1016V14.5843H13.7078V12.0546L14.0625 12.075C14.4071 12.069 14.7485 12.0073 15.0734 11.8921C15.3583 11.7942 15.6203 11.6395 15.8438 11.4375C16.0711 11.245 16.2503 11.0021 16.3672 10.7281C16.5239 10.2726 16.5799 9.78854 16.5312 9.30933C16.5215 8.967 16.4615 8.62796 16.3531 8.30308C16.2545 8.06856 16.1081 7.85714 15.9233 7.68229C15.7385 7.50743 15.5193 7.37297 15.2797 7.28745C15.0725 7.21245 14.8585 7.15802 14.6406 7.12495C14.4757 7.0995 14.3091 7.08592 14.1422 7.08433M13.8469 10.6687H13.7078V8.3562H14.0094C14.1425 8.3466 14.276 8.36704 14.4002 8.41599C14.5243 8.46494 14.6358 8.54116 14.7266 8.63901C14.9146 8.8906 15.015 9.19683 15.0125 9.51089C15.0125 9.89527 15.0125 10.2437 14.6656 10.489C14.4157 10.6265 14.1313 10.6883 13.8469 10.6671M19.5828 7.06402C19.4094 7.06402 19.2406 7.07652 19.1219 7.0812L18.75 7.09058H17.5313V14.5906H18.9656C19.5138 14.6056 20.0596 14.5127 20.5719 14.3171C20.9842 14.1536 21.3494 13.8899 21.6344 13.55C21.9115 13.2069 22.1104 12.8075 22.2172 12.3796C22.3399 11.8951 22.3998 11.3967 22.3953 10.8968C22.4256 10.3064 22.3799 9.71462 22.2594 9.13589C22.145 8.70989 21.9307 8.31728 21.6344 7.99058C21.4019 7.72677 21.1172 7.51397 20.7984 7.36558C20.5247 7.23889 20.2367 7.14551 19.9406 7.08745C19.8229 7.06801 19.7037 7.05912 19.5844 7.06089M19.3 13.2125H19.1438V8.42495H19.1641C19.4862 8.38789 19.8121 8.44601 20.1016 8.59214C20.3135 8.7614 20.4863 8.97464 20.6078 9.21714C20.739 9.47235 20.8146 9.75246 20.8297 10.039C20.8438 10.3828 20.8297 10.664 20.8297 10.8968C20.8361 11.165 20.8188 11.4332 20.7781 11.6984C20.73 11.9706 20.6409 12.234 20.5141 12.4796C20.3705 12.708 20.1764 12.9004 19.9469 13.0421C19.7541 13.1668 19.5258 13.225 19.2969 13.2078M27.2344 7.09058H23.4375V14.5906H25.0437V11.6156H27.075V10.2218H25.0437V8.48433H27.2312V7.09058" fill="#464648"/>
<path d="M34.0328 31.6485C34.0328 31.6485 39.0141 30.7454 39.0141 32.4469C39.0141 34.1485 35.9281 33.4563 34.0328 31.6485ZM30.35 31.7782C29.5586 31.953 28.7873 32.2091 28.0484 32.5422L28.6734 31.136C29.2984 29.7297 29.9469 27.8125 29.9469 27.8125C30.6927 29.0678 31.5604 30.2464 32.5375 31.3313C31.8007 31.4412 31.0704 31.5914 30.35 31.7813V31.7782ZM28.3781 21.6219C28.3781 20.1391 28.8578 19.7344 29.2313 19.7344C29.6047 19.7344 30.025 19.9141 30.0391 21.2016C29.9174 22.4962 29.6463 23.7724 29.2313 25.0047C28.6627 23.9701 28.3685 22.8071 28.3766 21.6266L28.3781 21.6219ZM21.1141 38.0532C19.5859 37.1391 24.3188 34.325 25.1766 34.2344C25.1719 34.236 22.7141 39.0094 21.1141 38.0532ZM40.4688 32.6485C40.4531 32.4922 40.3125 30.7625 37.2344 30.836C35.9514 30.8153 34.669 30.9057 33.4016 31.1063C32.1739 29.8694 31.1166 28.4743 30.2578 26.9579C30.7989 25.3945 31.1263 23.7652 31.2313 22.1141C31.1859 20.2391 30.7375 19.1641 29.3 19.1797C27.8625 19.1954 27.6531 20.4532 27.8422 22.325C28.0274 23.5829 28.3767 24.8111 28.8813 25.9782C28.8813 25.9782 28.2172 28.0454 27.3391 30.1016C26.4609 32.1579 25.8609 33.236 25.8609 33.236C24.334 33.7331 22.8965 34.4716 21.6031 35.4235C20.3156 36.6219 19.7922 37.5422 20.4703 38.4625C21.0547 39.2563 23.1 39.436 24.9281 37.0407C25.8995 35.8035 26.7869 34.5027 27.5844 33.1469C27.5844 33.1469 30.3719 32.3829 31.2391 32.1735C32.1063 31.9641 33.1547 31.7985 33.1547 31.7985C33.1547 31.7985 35.7 34.3594 38.1547 34.2688C40.6094 34.1782 40.4906 32.8016 40.475 32.6516" fill="#D8612B"/>
<path d="M37.4282 3.24536V12.4219H46.2298L37.4282 3.24536Z" fill="#909090"/>
<path d="M37.5483 3.125V12.3016H46.3499L37.5483 3.125Z" fill="#F4F4F4"/>
<path d="M14.0234 6.96409H11.9812V14.4641H13.5937V11.936L13.95 11.9563C14.2946 11.9503 14.636 11.8886 14.9609 11.7735C15.2457 11.6755 15.5078 11.5208 15.7312 11.3188C15.9568 11.1258 16.1344 10.8829 16.25 10.6094C16.4067 10.1539 16.4626 9.66987 16.414 9.19065C16.4043 8.84832 16.3442 8.50928 16.2359 8.1844C16.1373 7.94988 15.9909 7.73846 15.8061 7.56361C15.6213 7.38875 15.4021 7.25429 15.1625 7.16878C14.9543 7.09304 14.7392 7.03809 14.5203 7.00471C14.3553 6.97926 14.1887 6.96568 14.0218 6.96409M13.7265 10.5485H13.5875V8.23596H13.8906C14.0237 8.22637 14.1572 8.2468 14.2814 8.29575C14.4055 8.3447 14.517 8.42092 14.6078 8.51878C14.7958 8.77036 14.8962 9.07659 14.8937 9.39065C14.8937 9.77503 14.8937 10.1235 14.5468 10.3688C14.2969 10.5062 14.0125 10.5681 13.7281 10.5469M19.4625 6.94378C19.289 6.94378 19.1203 6.95628 19.0015 6.96096L18.6343 6.97034H17.4156V14.4703H18.85C19.3981 14.4854 19.9439 14.3925 20.4562 14.1969C20.8686 14.0333 21.2337 13.7697 21.5187 13.4297C21.7958 13.0867 21.9947 12.6873 22.1015 12.2594C22.2243 11.7748 22.2841 11.2765 22.2796 10.7766C22.3099 10.1862 22.2643 9.59438 22.1437 9.01565C22.0293 8.58966 21.8151 8.19705 21.5187 7.87034C21.2862 7.60653 21.0016 7.39373 20.6828 7.24534C20.409 7.11865 20.121 7.02527 19.825 6.96721C19.7072 6.94777 19.588 6.93888 19.4687 6.94065M19.1843 13.0922H19.0281V8.30471H19.0484C19.3705 8.26765 19.6964 8.32577 19.9859 8.4719C20.1979 8.64116 20.3706 8.8544 20.4921 9.0969C20.6233 9.35211 20.6989 9.63222 20.714 9.91878C20.7281 10.2625 20.714 10.5438 20.714 10.7766C20.7204 11.0448 20.7031 11.313 20.6625 11.5782C20.6143 11.8504 20.5253 12.1138 20.3984 12.3594C20.2548 12.5878 20.0608 12.7802 19.8312 12.9219C19.6384 13.0466 19.4101 13.1048 19.1812 13.0875M27.114 6.97034H23.3171V14.4703H24.9234V11.4953H26.9546V10.1016H24.9234V8.36409H27.1109V6.97034" fill="white"/>
</svg>
