<svg width="20" height="16" viewBox="0 0 20 16" fill="none" xmlns="http://www.w3.org/2000/svg">
<path d="M19.0991 0C19.7154 0 20.1804 0.515522 19.9317 1.47439L16.915 15.0326C16.7041 15.9966 16.0932 16.2286 15.2498 15.7801L8.05408 10.7125C8.02618 10.6934 8.00344 10.6683 7.98776 10.6392C7.97208 10.61 7.9639 10.5777 7.9639 10.545C7.9639 10.5122 7.97208 10.48 7.98776 10.4508C8.00344 10.4217 8.02618 10.3965 8.05408 10.3774L16.3635 3.22201C16.742 2.90239 16.2824 2.74773 15.7851 3.03642L5.35635 9.31032C5.32472 9.32999 5.28881 9.34253 5.25134 9.34699C5.21387 9.35146 5.17583 9.34773 5.1401 9.33609L0.712357 8.00089C-0.271585 7.72767 -0.271586 7.08326 0.934014 6.62445L18.6504 0.108259C18.7909 0.0439849 18.9435 0.0071754 19.0991 0Z" fill="white"/>
</svg>
