<svg width="20" height="19" viewBox="0 0 20 19" fill="none" xmlns="http://www.w3.org/2000/svg">
<path d="M10.1471 0C8.54755 0.00173576 6.976 0.423965 5.58695 1.22517C4.19789 2.02638 3.03916 3.17899 2.22467 4.56966C1.41019 5.96034 0.967991 7.54121 0.941558 9.15683C0.915126 10.7725 1.30537 12.3672 2.07392 13.7843L0.938965 18.6041L5.71005 17.4576C6.94062 18.1395 8.30922 18.5282 9.71127 18.5941C11.1133 18.6599 12.5117 18.4011 13.7996 17.8373C15.0875 17.2736 16.2307 16.42 17.142 15.3416C18.0533 14.2632 18.7085 12.9887 19.0576 11.6153C19.4066 10.242 19.4403 8.80623 19.156 7.41774C18.8716 6.02926 18.2769 4.7248 17.4171 3.60407C16.5574 2.48333 15.4554 1.57597 14.1954 0.951323C12.9353 0.326678 11.5506 0.00128207 10.1471 0ZM5.54302 4.22702H8.05277C8.16636 4.22702 8.27529 4.2726 8.35561 4.35374C8.43593 4.43488 8.48105 4.54493 8.48105 4.65968C8.467 5.23666 8.56297 5.81099 8.76372 6.35135C8.85017 6.53224 8.86918 6.73854 8.81726 6.93244C8.76535 7.12633 8.64598 7.29483 8.48105 7.40702L7.60307 8.27233C7.99236 9.04031 8.50138 9.74005 9.11063 10.3447C9.70437 10.9702 10.3942 11.4947 11.1535 11.898L12.0101 11.011C12.4384 10.5784 12.6354 10.5784 13.0551 10.7255C13.59 10.9283 14.1586 11.0252 14.7297 11.011C14.8416 11.0163 14.9476 11.0636 15.0268 11.1436C15.106 11.2236 15.1528 11.3306 15.158 11.4437V13.979C15.1528 14.0921 15.106 14.1991 15.0268 14.2791C14.9476 14.3591 14.8416 14.4064 14.7297 14.4117C12.2104 14.3008 9.82229 13.2457 8.03135 11.4523C6.25328 9.64503 5.20837 7.23144 5.10189 4.68564C5.10291 4.56655 5.14932 4.45244 5.23148 4.36702C5.31363 4.28161 5.42521 4.23147 5.54302 4.22702Z" fill="white"/>
</svg>
