<svg width="22" height="16" viewBox="0 0 22 16" fill="none" xmlns="http://www.w3.org/2000/svg">
<path fill-rule="evenodd" clip-rule="evenodd" d="M20.8185 1.26615C21.1542 1.60542 21.3958 2.02786 21.5192 2.49117C22.1792 5.1811 22.1364 10.2666 21.5333 12.9987C21.4099 13.462 21.1683 13.8844 20.8326 14.2237C20.4969 14.5629 20.0789 14.8071 19.6205 14.9318C16.9865 15.5901 5.19033 15.5091 2.70905 14.9318C2.25063 14.8071 1.83265 14.5629 1.49696 14.2237C1.16126 13.8844 0.919635 13.462 0.796256 12.9987C0.173636 10.4346 0.216407 5.01312 0.78218 2.5054C0.905475 2.04198 1.14707 1.61944 1.48276 1.28007C1.81846 0.940694 2.23648 0.696408 2.69498 0.571667C6.2163 -0.170855 18.3536 0.06881 19.6064 0.557988C20.0649 0.682682 20.4828 0.926885 20.8185 1.26615ZM9.07104 4.46708L14.7271 7.74523L9.07104 11.0234V4.46708Z" fill="white"/>
</svg>
